<?xml version="1.0" encoding="UTF-8" standalone="no"?>
<!DOCTYPE svg PUBLIC "-//W3C//DTD SVG 1.1//EN"
 "http://www.w3.org/Graphics/SVG/1.1/DTD/svg11.dtd">
<!-- Generated by graphviz version 9.0.0 (20230911.1827)
 -->
<!-- Title: G Pages: 1 -->
<svg width="526pt" height="260pt"
 viewBox="0.00 0.00 525.78 260.00" xmlns="http://www.w3.org/2000/svg" xmlns:xlink="http://www.w3.org/1999/xlink">
<g id="graph0" class="graph" transform="scale(1 1) rotate(0) translate(4 256)">
<title>G</title>
<polygon fill="white" stroke="none" points="-4,4 -4,-256 521.78,-256 521.78,4 -4,4"/>
<!-- management&#45;analytics&#45;proxy -->
<g id="node1" class="node">
<title>management&#45;analytics&#45;proxy</title>
<ellipse fill="none" stroke="black" cx="128.12" cy="-180" rx="119.42" ry="18"/>
<text text-anchor="middle" x="128.12" y="-174.95" font-family="Times,serif" font-size="14.00">management&#45;analytics&#45;proxy</text>
</g>
<!-- analytics&#45;ingestion&#45;client -->
<g id="node2" class="node">
<title>analytics&#45;ingestion&#45;client</title>
<ellipse fill="none" stroke="black" cx="405.01" cy="-153" rx="104.07" ry="18"/>
<text text-anchor="middle" x="405.01" y="-147.95" font-family="Times,serif" font-size="14.00">analytics&#45;ingestion&#45;client</text>
</g>
<!-- management&#45;analytics&#45;proxy&#45;&#45;analytics&#45;ingestion&#45;client -->
<g id="edge1" class="edge">
<title>management&#45;analytics&#45;proxy&#45;&#45;analytics&#45;ingestion&#45;client</title>
<path fill="none" stroke="black" d="M229.53,-170.14C256.99,-167.44 286.57,-164.54 313.44,-161.9"/>
</g>
<!-- management&#45;apim -->
<g id="node3" class="node">
<title>management&#45;apim</title>
<ellipse fill="none" stroke="black" cx="128.12" cy="-126" rx="81.04" ry="18"/>
<text text-anchor="middle" x="128.12" y="-120.95" font-family="Times,serif" font-size="14.00">management&#45;apim</text>
</g>
<!-- management&#45;apim&#45;&#45;analytics&#45;ingestion&#45;client -->
<g id="edge2" class="edge">
<title>management&#45;apim&#45;&#45;analytics&#45;ingestion&#45;client</title>
<path fill="none" stroke="black" d="M202.79,-133.24C236.82,-136.58 277.56,-140.58 313.45,-144.1"/>
</g>
<!-- gateway&#45;client&#45;client -->
<g id="node4" class="node">
<title>gateway&#45;client&#45;client</title>
<ellipse fill="none" stroke="black" cx="405.01" cy="-99" rx="88.71" ry="18"/>
<text text-anchor="middle" x="405.01" y="-93.95" font-family="Times,serif" font-size="14.00">gateway&#45;client&#45;client</text>
</g>
<!-- management&#45;apim&#45;&#45;gateway&#45;client&#45;client -->
<g id="edge3" class="edge">
<title>management&#45;apim&#45;&#45;gateway&#45;client&#45;client</title>
<path fill="none" stroke="black" d="M202.79,-118.76C240.32,-115.08 286.01,-110.59 324.35,-106.82"/>
</g>
<!-- portal&#45;admin&#45;client -->
<g id="node5" class="node">
<title>portal&#45;admin&#45;client</title>
<ellipse fill="none" stroke="black" cx="405.01" cy="-45" rx="82.57" ry="18"/>
<text text-anchor="middle" x="405.01" y="-39.95" font-family="Times,serif" font-size="14.00">portal&#45;admin&#45;client</text>
</g>
<!-- management&#45;apim&#45;&#45;portal&#45;admin&#45;client -->
<g id="edge4" class="edge">
<title>management&#45;apim&#45;&#45;portal&#45;admin&#45;client</title>
<path fill="none" stroke="black" d="M198.81,-116.85C217.97,-112.84 238.37,-107.12 256.25,-99 274.45,-90.73 274.15,-80.52 292.25,-72 306.69,-65.19 323.02,-60 338.65,-56.09"/>
</g>
<!-- management&#45;consumer&#45;catalog -->
<g id="node6" class="node">
<title>management&#45;consumer&#45;catalog</title>
<ellipse fill="none" stroke="black" cx="128.12" cy="-234" rx="128.12" ry="18"/>
<text text-anchor="middle" x="128.12" y="-228.95" font-family="Times,serif" font-size="14.00">management&#45;consumer&#45;catalog</text>
</g>
<!-- custom&#45;consumer&#45;endpoint -->
<g id="node7" class="node">
<title>custom&#45;consumer&#45;endpoint</title>
<ellipse fill="none" stroke="black" cx="405.01" cy="-234" rx="112.77" ry="18"/>
<text text-anchor="middle" x="405.01" y="-228.95" font-family="Times,serif" font-size="14.00">custom&#45;consumer&#45;endpoint</text>
</g>
<!-- management&#45;consumer&#45;catalog&#45;&#45;custom&#45;consumer&#45;endpoint -->
<g id="edge5" class="edge">
<title>management&#45;consumer&#45;catalog&#45;&#45;custom&#45;consumer&#45;endpoint</title>
<path fill="none" stroke="black" d="M256.51,-234C268.31,-234 280.2,-234 291.85,-234"/>
</g>
<!-- management&#45;portal&#45;proxy -->
<g id="node8" class="node">
<title>management&#45;portal&#45;proxy</title>
<ellipse fill="none" stroke="black" cx="128.12" cy="-18" rx="108.16" ry="18"/>
<text text-anchor="middle" x="128.12" y="-12.95" font-family="Times,serif" font-size="14.00">management&#45;portal&#45;proxy</text>
</g>
<!-- management&#45;portal&#45;proxy&#45;&#45;portal&#45;admin&#45;client -->
<g id="edge6" class="edge">
<title>management&#45;portal&#45;proxy&#45;&#45;portal&#45;admin&#45;client</title>
<path fill="none" stroke="black" d="M222.19,-27.14C257.08,-30.57 296.24,-34.41 329.26,-37.66"/>
</g>
<!-- management&#45;taskmanager -->
<g id="node9" class="node">
<title>management&#45;taskmanager</title>
<ellipse fill="none" stroke="black" cx="128.12" cy="-72" rx="109.19" ry="18"/>
<text text-anchor="middle" x="128.12" y="-66.95" font-family="Times,serif" font-size="14.00">management&#45;taskmanager</text>
</g>
<!-- management&#45;taskmanager&#45;&#45;analytics&#45;ingestion&#45;client -->
<g id="edge7" class="edge">
<title>management&#45;taskmanager&#45;&#45;analytics&#45;ingestion&#45;client</title>
<path fill="none" stroke="black" d="M211.17,-83.95C226.53,-87.7 242.17,-92.61 256.25,-99 274.45,-107.27 274.15,-117.48 292.25,-126 304.43,-131.74 317.97,-136.33 331.29,-139.98"/>
</g>
<!-- management&#45;taskmanager&#45;&#45;gateway&#45;client&#45;client -->
<g id="edge8" class="edge">
<title>management&#45;taskmanager&#45;&#45;gateway&#45;client&#45;client</title>
<path fill="none" stroke="black" d="M222.96,-81.22C255.93,-84.46 292.64,-88.06 324.34,-91.17"/>
</g>
<!-- management&#45;taskmanager&#45;&#45;portal&#45;admin&#45;client -->
<g id="edge9" class="edge">
<title>management&#45;taskmanager&#45;&#45;portal&#45;admin&#45;client</title>
<path fill="none" stroke="black" d="M222.96,-62.78C257.64,-59.38 296.46,-55.56 329.23,-52.35"/>
</g>
</g>
</svg>
