<?xml version="1.0" encoding="UTF-8" standalone="no"?>
<!DOCTYPE svg PUBLIC "-//W3C//DTD SVG 1.1//EN"
 "http://www.w3.org/Graphics/SVG/1.1/DTD/svg11.dtd">
<!-- Generated by graphviz version 9.0.0 (20230911.1827)
 -->
<!-- Title: G Pages: 1 -->
<svg width="952pt" height="422pt"
 viewBox="0.00 0.00 951.61 422.00" xmlns="http://www.w3.org/2000/svg" xmlns:xlink="http://www.w3.org/1999/xlink">
<g id="graph0" class="graph" transform="scale(1 1) rotate(0) translate(4 418)">
<title>G</title>
<polygon fill="white" stroke="none" points="-4,4 -4,-418 947.61,-418 947.61,4 -4,4"/>
<!-- analytics&#45;ingestion&#45;client -->
<g id="node1" class="node">
<title>analytics&#45;ingestion&#45;client</title>
<ellipse fill="none" stroke="black" cx="839.54" cy="-396" rx="104.07" ry="18"/>
<text text-anchor="middle" x="839.54" y="-390.95" font-family="Times,serif" font-size="14.00">analytics&#45;ingestion&#45;client</text>
</g>
<!-- analytics&#45;ai&#45;endpoint -->
<g id="node2" class="node">
<title>analytics&#45;ai&#45;endpoint</title>
<ellipse fill="none" stroke="black" cx="586.71" cy="-396" rx="88.71" ry="18"/>
<text text-anchor="middle" x="586.71" y="-390.95" font-family="Times,serif" font-size="14.00">analytics&#45;ai&#45;endpoint</text>
</g>
<!-- analytics&#45;ingestion&#45;client&#45;&#45;analytics&#45;ai&#45;endpoint -->
<g id="edge1" class="edge">
<title>analytics&#45;ingestion&#45;client&#45;&#45;analytics&#45;ai&#45;endpoint</title>
<path fill="none" stroke="black" d="M735.07,-396C715.37,-396 694.92,-396 675.75,-396"/>
</g>
<!-- ingress&#45;issuer -->
<g id="node3" class="node">
<title>ingress&#45;issuer</title>
<ellipse fill="none" stroke="black" cx="344.11" cy="-315" rx="61.59" ry="18"/>
<text text-anchor="middle" x="344.11" y="-309.95" font-family="Times,serif" font-size="14.00">ingress&#45;issuer</text>
</g>
<!-- analytics&#45;ai&#45;endpoint&#45;&#45;ingress&#45;issuer -->
<g id="edge2" class="edge">
<title>analytics&#45;ai&#45;endpoint&#45;&#45;ingress&#45;issuer</title>
<path fill="none" stroke="black" d="M524.01,-382.96C507.59,-378.99 489.97,-374.26 473.94,-369 440.53,-358.04 403.63,-342.17 377.92,-330.47"/>
</g>
<!-- External Frontend/Ingress -->
<g id="node13" class="node">
<title>External Frontend/Ingress</title>
<ellipse fill="none" stroke="black" cx="107.14" cy="-247" rx="107.14" ry="18"/>
<text text-anchor="middle" x="107.14" y="-241.95" font-family="Times,serif" font-size="14.00">External Frontend/Ingress</text>
</g>
<!-- ingress&#45;issuer&#45;&#45;External Frontend/Ingress -->
<g id="edge10" class="edge">
<title>ingress&#45;issuer&#45;&#45;External Frontend/Ingress</title>
<path fill="none" stroke="black" d="M299.19,-302.29C260.53,-291.1 204.1,-274.77 162.59,-262.76"/>
</g>
<!-- portal&#45;admin&#45;client -->
<g id="node4" class="node">
<title>portal&#45;admin&#45;client</title>
<ellipse fill="none" stroke="black" cx="839.54" cy="-342" rx="82.57" ry="18"/>
<text text-anchor="middle" x="839.54" y="-336.95" font-family="Times,serif" font-size="14.00">portal&#45;admin&#45;client</text>
</g>
<!-- portal&#45;admin -->
<g id="node5" class="node">
<title>portal&#45;admin</title>
<ellipse fill="none" stroke="black" cx="586.71" cy="-342" rx="59.03" ry="18"/>
<text text-anchor="middle" x="586.71" y="-336.95" font-family="Times,serif" font-size="14.00">portal&#45;admin</text>
</g>
<!-- portal&#45;admin&#45;client&#45;&#45;portal&#45;admin -->
<g id="edge3" class="edge">
<title>portal&#45;admin&#45;client&#45;&#45;portal&#45;admin</title>
<path fill="none" stroke="black" d="M756.76,-342C720.59,-342 678.89,-342 645.95,-342"/>
</g>
<!-- portal&#45;admin&#45;&#45;ingress&#45;issuer -->
<g id="edge11" class="edge">
<title>portal&#45;admin&#45;&#45;ingress&#45;issuer</title>
<path fill="none" stroke="black" d="M530.81,-335.84C492.39,-331.53 441.19,-325.78 402.28,-321.42"/>
</g>
<!-- gateway&#45;client&#45;client -->
<g id="node6" class="node">
<title>gateway&#45;client&#45;client</title>
<ellipse fill="none" stroke="black" cx="839.54" cy="-288" rx="88.71" ry="18"/>
<text text-anchor="middle" x="839.54" y="-282.95" font-family="Times,serif" font-size="14.00">gateway&#45;client&#45;client</text>
</g>
<!-- gwv6&#45;manager&#45;endpoint -->
<g id="node7" class="node">
<title>gwv6&#45;manager&#45;endpoint</title>
<ellipse fill="none" stroke="black" cx="586.71" cy="-288" rx="102.02" ry="18"/>
<text text-anchor="middle" x="586.71" y="-282.95" font-family="Times,serif" font-size="14.00">gwv6&#45;manager&#45;endpoint</text>
</g>
<!-- gateway&#45;client&#45;client&#45;&#45;gwv6&#45;manager&#45;endpoint -->
<g id="edge4" class="edge">
<title>gateway&#45;client&#45;client&#45;&#45;gwv6&#45;manager&#45;endpoint</title>
<path fill="none" stroke="black" d="M750.46,-288C730.56,-288 709.27,-288 688.88,-288"/>
</g>
<!-- gwv6&#45;manager&#45;endpoint&#45;&#45;ingress&#45;issuer -->
<g id="edge5" class="edge">
<title>gwv6&#45;manager&#45;endpoint&#45;&#45;ingress&#45;issuer</title>
<path fill="none" stroke="black" d="M499.53,-297.67C467.16,-301.3 431.21,-305.34 402.15,-308.6"/>
</g>
<!-- custom&#45;cm&#45;endpoint -->
<g id="node8" class="node">
<title>custom&#45;cm&#45;endpoint</title>
<ellipse fill="none" stroke="black" cx="586.71" cy="-234" rx="88.2" ry="18"/>
<text text-anchor="middle" x="586.71" y="-228.95" font-family="Times,serif" font-size="14.00">custom&#45;cm&#45;endpoint</text>
</g>
<!-- pkibw (custom) issuer -->
<g id="node9" class="node">
<title>pkibw (custom) issuer</title>
<ellipse fill="none" stroke="black" cx="344.11" cy="-153" rx="93.83" ry="18"/>
<text text-anchor="middle" x="344.11" y="-147.95" font-family="Times,serif" font-size="14.00">pkibw (custom) issuer</text>
</g>
<!-- custom&#45;cm&#45;endpoint&#45;&#45;pkibw (custom) issuer -->
<g id="edge6" class="edge">
<title>custom&#45;cm&#45;endpoint&#45;&#45;pkibw (custom) issuer</title>
<path fill="none" stroke="black" d="M524.01,-220.96C507.59,-216.99 489.97,-212.26 473.94,-207 441.91,-196.49 406.68,-181.48 381.17,-169.94"/>
</g>
<!-- pkibw (custom) issuer&#45;&#45;External Frontend/Ingress -->
<g id="edge13" class="edge">
<title>pkibw (custom) issuer&#45;&#45;External Frontend/Ingress</title>
<path fill="none" stroke="black" d="M301.91,-169.48C259.27,-186.54 193,-213.05 150.08,-230.22"/>
</g>
<!-- custom&#45;apim&#45;endpoint -->
<g id="node10" class="node">
<title>custom&#45;apim&#45;endpoint</title>
<ellipse fill="none" stroke="black" cx="586.71" cy="-180" rx="95.37" ry="18"/>
<text text-anchor="middle" x="586.71" y="-174.95" font-family="Times,serif" font-size="14.00">custom&#45;apim&#45;endpoint</text>
</g>
<!-- custom&#45;apim&#45;endpoint&#45;&#45;pkibw (custom) issuer -->
<g id="edge7" class="edge">
<title>custom&#45;apim&#45;endpoint&#45;&#45;pkibw (custom) issuer</title>
<path fill="none" stroke="black" d="M503.92,-170.82C478.71,-167.99 450.99,-164.88 425.86,-162.06"/>
</g>
<!-- custom&#45;consumer&#45;endpoint -->
<g id="node11" class="node">
<title>custom&#45;consumer&#45;endpoint</title>
<ellipse fill="none" stroke="black" cx="586.71" cy="-126" rx="112.77" ry="18"/>
<text text-anchor="middle" x="586.71" y="-120.95" font-family="Times,serif" font-size="14.00">custom&#45;consumer&#45;endpoint</text>
</g>
<!-- custom&#45;consumer&#45;endpoint&#45;&#45;pkibw (custom) issuer -->
<g id="edge8" class="edge">
<title>custom&#45;consumer&#45;endpoint&#45;&#45;pkibw (custom) issuer</title>
<path fill="none" stroke="black" d="M493.37,-136.36C471.24,-138.85 447.78,-141.48 426.2,-143.9"/>
</g>
<!-- hub&#45;endpoint -->
<g id="node12" class="node">
<title>hub&#45;endpoint</title>
<ellipse fill="none" stroke="black" cx="586.71" cy="-72" rx="60.05" ry="18"/>
<text text-anchor="middle" x="586.71" y="-66.95" font-family="Times,serif" font-size="14.00">hub&#45;endpoint</text>
</g>
<!-- hub&#45;endpoint&#45;&#45;pkibw (custom) issuer -->
<g id="edge9" class="edge">
<title>hub&#45;endpoint&#45;&#45;pkibw (custom) issuer</title>
<path fill="none" stroke="black" d="M536.27,-82.15C516.66,-86.64 494.05,-92.4 473.94,-99 441.91,-109.51 406.68,-124.52 381.17,-136.06"/>
</g>
<!-- custom&#45;portal&#45;web -->
<g id="node14" class="node">
<title>custom&#45;portal&#45;web</title>
<ellipse fill="none" stroke="black" cx="586.71" cy="-18" rx="81.04" ry="18"/>
<text text-anchor="middle" x="586.71" y="-12.95" font-family="Times,serif" font-size="14.00">custom&#45;portal&#45;web</text>
</g>
<!-- custom&#45;portal&#45;web&#45;&#45;pkibw (custom) issuer -->
<g id="edge12" class="edge">
<title>custom&#45;portal&#45;web&#45;&#45;pkibw (custom) issuer</title>
<path fill="none" stroke="black" d="M520.08,-28.54C504.46,-32.47 488.2,-37.81 473.94,-45 427.82,-68.27 383.89,-110.99 361.17,-135.14"/>
</g>
</g>
</svg>
